<?xml version="1.0" encoding="UTF-8" standalone="no"?>
<svg
   viewBox="0 0 364.35059 364.35059"
   version="1.1"
   id="svg8"
   sodipodi:docname="profile.svg"
   width="364.35059"
   height="364.35059"
   inkscape:version="1.2 (dc2aedaf03, 2022-05-15)"
   xmlns:inkscape="http://www.inkscape.org/namespaces/inkscape"
   xmlns:sodipodi="http://sodipodi.sourceforge.net/DTD/sodipodi-0.dtd"
   xmlns="http://www.w3.org/2000/svg"
   xmlns:svg="http://www.w3.org/2000/svg"
   xmlns:rdf="http://www.w3.org/1999/02/22-rdf-syntax-ns#"
   xmlns:cc="http://creativecommons.org/ns#"
   xmlns:dc="http://purl.org/dc/elements/1.1/">
  <defs
     id="defs12" />
  <sodipodi:namedview
     id="namedview10"
     pagecolor="#ffffff"
     bordercolor="#000000"
     borderopacity="0.25"
     inkscape:showpageshadow="2"
     inkscape:pageopacity="0.0"
     inkscape:pagecheckerboard="0"
     inkscape:deskcolor="#d1d1d1"
     showgrid="false"
     inkscape:zoom="1.7050781"
     inkscape:cx="181.22337"
     inkscape:cy="182.39633"
     inkscape:window-width="1920"
     inkscape:window-height="1027"
     inkscape:window-x="-8"
     inkscape:window-y="-8"
     inkscape:window-maximized="1"
     inkscape:current-layer="svg8" />
  <title
     id="title2">Profile</title>
  <g
     id="g407">
    <rect
       style="fill:#ffffff;stroke-width:1.04315"
       id="rect349"
       width="208.2016"
       height="246.9095"
       x="78.588776"
       y="55.12944" />
    <g
       id="Profile"
       transform="translate(-73.8294,-73.8247)">
      <g
         id="Profile-2"
         data-name="Profile">
        <path
           d="M 256,73.8247 A 182.1753,182.1753 0 1 0 438.18,256.0047 182.1767,182.1767 0 0 0 256,73.8247 Z m 0,71.8335 A 55.05,55.05 0 1 1 200.9462,200.704 55.0458,55.0458 0 0 1 256,145.6582 Z m 0.5193,208.7226 h -80.8511 c 0,-54.2547 29.5218,-73.5732 48.8845,-90.9054 a 65.68,65.68 0 0 0 62.8856,0 c 19.3626,17.3322 48.8844,36.6507 48.8844,90.9054 z"
           id="path4" />
      </g>
    </g>
  </g>
  <metadata
     id="metadata241">
    <rdf:RDF>
      <cc:Work
         rdf:about="">
        <dc:title>Profile</dc:title>
      </cc:Work>
    </rdf:RDF>
  </metadata>
</svg>
