<?xml version="1.0" encoding="UTF-8" standalone="no"?>
<svg
   id="Layer_1"
   data-name="Layer 1"
   viewBox="0 0 122.88 121.51"
   version="1.1"
   sodipodi:docname="addArticleIcon.svg"
   inkscape:version="1.2 (dc2aedaf03, 2022-05-15)"
   xmlns:inkscape="http://www.inkscape.org/namespaces/inkscape"
   xmlns:sodipodi="http://sodipodi.sourceforge.net/DTD/sodipodi-0.dtd"
   xmlns="http://www.w3.org/2000/svg"
   xmlns:svg="http://www.w3.org/2000/svg">
  <defs
     id="defs9" />
  <sodipodi:namedview
     id="namedview7"
     pagecolor="#ffffff"
     bordercolor="#000000"
     borderopacity="0.25"
     inkscape:showpageshadow="2"
     inkscape:pageopacity="0.0"
     inkscape:pagecheckerboard="0"
     inkscape:deskcolor="#d1d1d1"
     showgrid="false"
     inkscape:zoom="5.080275"
     inkscape:cx="88.577882"
     inkscape:cy="74.602261"
     inkscape:window-width="1920"
     inkscape:window-height="1027"
     inkscape:window-x="-8"
     inkscape:window-y="-8"
     inkscape:window-maximized="1"
     inkscape:current-layer="Layer_1" />
  <title
     id="title2">edit</title>
  <path
     d="M28.66,1.64H58.88L44.46,16.71H28.66a13.52,13.52,0,0,0-9.59,4l0,0a13.52,13.52,0,0,0-4,9.59v76.14H91.21a13.5,13.5,0,0,0,9.59-4l0,0a13.5,13.5,0,0,0,4-9.59V77.3l15.07-15.74V92.85a28.6,28.6,0,0,1-8.41,20.22l0,.05a28.58,28.58,0,0,1-20.2,8.39H11.5a11.47,11.47,0,0,1-8.1-3.37l0,0A11.52,11.52,0,0,1,0,110V30.3A28.58,28.58,0,0,1,8.41,10.09L8.46,10a28.58,28.58,0,0,1,20.2-8.4ZM73,76.47l-29.42,6,4.25-31.31L73,76.47ZM57.13,41.68,96.3.91A2.74,2.74,0,0,1,99.69.38l22.48,21.76a2.39,2.39,0,0,1-.19,3.57L82.28,67,57.13,41.68Z"
     id="path4"
     style="stroke:#009600;stroke-opacity:1;fill:#009600;fill-opacity:1" />
</svg>
