<?xml version="1.0" encoding="UTF-8" standalone="no"?>
<!-- Created with Inkscape (http://www.inkscape.org/) -->

<svg
   width="17.937506"
   height="18.953133"
   viewBox="0 0 4.7459651 5.0146831"
   version="1.1"
   id="svg5"
   inkscape:export-filename="..\..\..\..\..\..\Users\Mateusz\Desktop\asdsa.svg"
   inkscape:export-xdpi="96"
   inkscape:export-ydpi="96"
   sodipodi:docname="bbBold.svg"
   xmlns:inkscape="http://www.inkscape.org/namespaces/inkscape"
   xmlns:sodipodi="http://sodipodi.sourceforge.net/DTD/sodipodi-0.dtd"
   xmlns="http://www.w3.org/2000/svg"
   xmlns:svg="http://www.w3.org/2000/svg">
  <sodipodi:namedview
     id="namedview7"
     pagecolor="#ffffff"
     bordercolor="#000000"
     borderopacity="0.25"
     inkscape:showpageshadow="2"
     inkscape:pageopacity="0.0"
     inkscape:pagecheckerboard="0"
     inkscape:deskcolor="#d1d1d1"
     inkscape:document-units="mm"
     showgrid="false" />
  <defs
     id="defs2" />
  <g
     inkscape:label="Warstwa 1"
     inkscape:groupmode="layer"
     id="layer1"
     transform="translate(-76.13402,-87.294338)">
    <g
       aria-label="B"
       id="text186"
       style="font-weight:bold;font-size:8.46667px;font-family:monospace;-inkscape-font-specification:'monospace, Bold';text-align:center;text-anchor:middle;stroke-width:0.264583">
      <path
         d="m 76.832685,91.461527 v -3.315561 h -0.132292 q -0.305924,0 -0.438216,-0.115755 -0.128157,-0.11989 -0.128157,-0.310059 0,-0.190169 0.128157,-0.305925 0.132292,-0.119889 0.438216,-0.119889 h 2.124936 q 0.760678,0 1.223699,0.425814 0.463021,0.42168 0.463021,1.00459 0,0.276986 -0.107487,0.520899 -0.107487,0.243913 -0.326596,0.450619 0.40101,0.239778 0.599447,0.562239 0.202572,0.318327 0.202572,0.723471 0,0.322461 -0.144694,0.599447 -0.107487,0.210839 -0.264584,0.334863 -0.210839,0.173633 -0.516764,0.285254 -0.305925,0.107487 -0.764812,0.107487 h -2.488738 q -0.305924,0 -0.438216,-0.115755 -0.128157,-0.11989 -0.128157,-0.310059 0,-0.186035 0.132291,-0.30179 0.132292,-0.11989 0.434082,-0.11989 z m 0.847494,-2.083594 h 0.930176 q 0.500228,0 0.830958,-0.252181 0.223242,-0.169499 0.223242,-0.42168 0,-0.223243 -0.21084,-0.388607 -0.21084,-0.169499 -0.669727,-0.169499 h -1.103809 z m 0,2.083594 h 1.463477 q 0.516765,0 0.727605,-0.152962 0.16123,-0.115755 0.16123,-0.330729 0,-0.256316 -0.318327,-0.504363 -0.318327,-0.248047 -0.91364,-0.248047 h -1.120345 z"
         id="path347" />
    </g>
  </g>
</svg>
