<?xml version="1.0" encoding="UTF-8" standalone="no"?>
<!-- Created with Inkscape (http://www.inkscape.org/) -->

<svg
   width="2.0773926mm"
   height="2.418457mm"
   viewBox="0 0 2.0773926 2.418457"
   version="1.1"
   id="svg5"
   xmlns="http://www.w3.org/2000/svg"
   xmlns:svg="http://www.w3.org/2000/svg">
  <defs
     id="defs2" />
  <g
     id="layer1"
     transform="translate(-75.766077,-86.715566)">
    <g
       aria-label="I"
       id="text186"
       style="font-style:italic;font-size:4.23333px;font-family:monospace;-inkscape-font-specification:'monospace, Italic';text-align:center;text-anchor:middle;stroke-width:0.264583">
      <path
         d="m 77.111734,86.889196 -0.440283,2.071189 h 0.595312 q 0.05788,0 0.07855,0.0186 0.02067,0.01654 0.02067,0.04961 0,0.04341 -0.03514,0.07441 -0.03307,0.03101 -0.101286,0.03101 H 75.8653 q -0.05788,0 -0.07855,-0.0186 -0.02067,-0.0186 -0.02067,-0.05168 0,-0.04134 0.03307,-0.07235 0.03514,-0.03101 0.103353,-0.03101 h 0.595312 l 0.440282,-2.071189 h -0.595312 q -0.05788,0 -0.07855,-0.01654 -0.02067,-0.0186 -0.02067,-0.05374 0,-0.04134 0.03307,-0.07235 0.03514,-0.03101 0.103352,-0.03101 h 1.36219 q 0.05994,0 0.08061,0.0186 0.02067,0.01654 0.02067,0.04961 0,0.04341 -0.03514,0.07441 -0.03514,0.03101 -0.101286,0.03101 z"
         id="path497" />
    </g>
  </g>
</svg>
