<?xml version="1.0" encoding="UTF-8" standalone="no"?>
<!-- Created with Inkscape (http://www.inkscape.org/) -->

<svg
   width="1.7756042mm"
   height="2.5424805mm"
   viewBox="0 0 1.7756042 2.5424805"
   version="1.1"
   id="svg5"
   inkscape:export-filename="..\..\..\..\..\..\Users\Mateusz\Desktop\bbStrike.svg"
   inkscape:export-xdpi="96"
   inkscape:export-ydpi="96"
   sodipodi:docname="bbStrike.svg"
   inkscape:version="1.2 (dc2aedaf03, 2022-05-15)"
   xmlns:inkscape="http://www.inkscape.org/namespaces/inkscape"
   xmlns:sodipodi="http://sodipodi.sourceforge.net/DTD/sodipodi-0.dtd"
   xmlns="http://www.w3.org/2000/svg"
   xmlns:svg="http://www.w3.org/2000/svg">
  <sodipodi:namedview
     id="namedview7"
     pagecolor="#ffffff"
     bordercolor="#000000"
     borderopacity="0.25"
     inkscape:showpageshadow="2"
     inkscape:pageopacity="0.0"
     inkscape:pagecheckerboard="0"
     inkscape:deskcolor="#d1d1d1"
     inkscape:document-units="mm"
     showgrid="false"
     inkscape:zoom="64.239789"
     inkscape:cx="2.6541183"
     inkscape:cy="5.29267"
     inkscape:window-width="1920"
     inkscape:window-height="1027"
     inkscape:window-x="-8"
     inkscape:window-y="-8"
     inkscape:window-maximized="1"
     inkscape:current-layer="layer1" />
  <defs
     id="defs2" />
  <g
     inkscape:label="Warstwa 1"
     inkscape:groupmode="layer"
     id="layer1"
     transform="translate(-75.658434,-86.659826)">
    <path
       id="text186"
       style="font-style:normal;font-variant:normal;font-weight:normal;font-stretch:normal;font-size:4.23333px;font-family:monospace;-inkscape-font-specification:'monospace, Normal';font-variant-ligatures:normal;font-variant-caps:normal;font-variant-numeric:normal;font-variant-east-asian:normal;text-align:center;text-anchor:middle;fill:#000000;fill-opacity:1;stroke:none;stroke-width:0.264583;stroke-dasharray:none;stroke-opacity:1"
       d="m 76.541067,86.659826 c -0.238399,0 -0.430637,0.06546 -0.576709,0.19637 -0.144692,0.130913 -0.217041,0.287322 -0.217041,0.469222 0,0.165524 0.05162,0.296813 0.15503,0.393775 h 0.311609 c -0.04314,-0.01798 -0.08291,-0.03906 -0.119373,-0.06305 -0.05236,-0.03583 -0.0944,-0.08199 -0.12609,-0.138493 -0.03169,-0.0565 -0.04754,-0.119201 -0.04754,-0.188102 0,-0.133669 0.0565,-0.249426 0.169499,-0.347266 0.112999,-0.09922 0.265273,-0.148828 0.45682,-0.148828 0.181899,0 0.328662,0.04617 0.440283,0.138493 0.112999,0.09233 0.172944,0.19637 0.179834,0.312125 0.0014,0.03721 0.0096,0.06408 0.02481,0.08062 0.01654,0.01654 0.03721,0.0248 0.06201,0.0248 0.02618,0 0.04685,-0.009 0.06201,-0.02687 0.01654,-0.01791 0.02481,-0.04754 0.02481,-0.08888 v -0.44235 c 0,-0.04134 -0.0083,-0.07097 -0.02481,-0.08888 -0.01516,-0.01792 -0.03583,-0.02687 -0.06201,-0.02687 -0.02618,0 -0.04754,0.009 -0.06408,0.02687 -0.01516,0.01791 -0.02274,0.04754 -0.02274,0.08888 v 0.05788 C 76.992378,86.736311 76.783605,86.659829 76.54107,86.659829 Z m 0.794784,1.481047 c -0.0092,0.0015 -0.01882,0.0021 -0.02842,0.0021 h -0.21239 c 0.03709,0.02741 0.06891,0.05823 0.09302,0.09405 0.04823,0.07028 0.07235,0.150896 0.07235,0.241845 0,0.148828 -0.06339,0.277675 -0.190169,0.38654 -0.125401,0.108865 -0.296968,0.163298 -0.514697,0.163298 -0.21773,0 -0.391363,-0.05168 -0.520899,-0.15503 -0.128156,-0.104731 -0.195681,-0.220485 -0.202571,-0.347265 -0.0014,-0.03721 -0.01034,-0.06408 -0.02687,-0.08062 -0.01516,-0.01654 -0.03514,-0.02481 -0.05994,-0.02481 -0.02618,0 -0.04754,0.009 -0.06408,0.02687 -0.01516,0.01792 -0.02274,0.04823 -0.02274,0.09095 v 0.479557 c 0,0.04134 0.0083,0.07097 0.02481,0.08888 0.01654,0.01792 0.03721,0.02687 0.06201,0.02687 0.02618,0 0.04685,-0.009 0.06201,-0.02687 0.01654,-0.01791 0.02481,-0.04754 0.02481,-0.08888 v -0.09922 c 0.180522,0.18879 0.42168,0.283186 0.72347,0.283186 0.268717,0 0.482314,-0.06959 0.640788,-0.208772 0.158473,-0.140559 0.237711,-0.31006 0.237711,-0.508496 0,-0.129535 -0.03101,-0.241847 -0.09302,-0.336931 -0.0016,-0.0025 -0.0035,-0.0048 -0.0052,-0.0072 z" />
    <path
       style="fill:#000000;fill-opacity:1;stroke:#000000;stroke-width:0.161661;stroke-dasharray:none;stroke-opacity:1"
       d="m 75.658232,87.931067 h 1.776"
       id="path1088" />
  </g>
</svg>
