<?xml version="1.0" encoding="UTF-8" standalone="no"?>
<!-- Created with Inkscape (http://www.inkscape.org/) -->

<svg
   width="2.201416mm"
   height="2.8628232mm"
   viewBox="0 0 2.201416 2.8628233"
   version="1.1"
   id="svg5"
   xmlns="http://www.w3.org/2000/svg"
   xmlns:svg="http://www.w3.org/2000/svg">
  <defs
     id="defs2" />
  <g
     id="layer1"
     transform="translate(-75.447756,-86.715566)">
    <g
       id="g300">
      <g
         aria-label="U"
         id="text186"
         style="font-size:4.23333px;font-family:monospace;-inkscape-font-specification:'monospace, Normal';text-align:center;text-anchor:middle;stroke-width:0.264583">
        <path
           d="m 77.386652,86.889196 v 1.451073 q 0,0.365868 -0.243912,0.613915 -0.243913,0.248047 -0.589111,0.248047 -0.23151,0 -0.411344,-0.101286 -0.179834,-0.101286 -0.305924,-0.305924 -0.126091,-0.206706 -0.126091,-0.454752 v -1.451073 h -0.146761 q -0.06201,0 -0.08888,-0.02274 -0.02687,-0.02481 -0.02687,-0.06408 0,-0.03927 0.02894,-0.06615 0.02481,-0.02067 0.08682,-0.02067 h 0.640788 q 0.06201,0 0.08888,0.02481 0.02687,0.02274 0.02687,0.06201 0,0.03927 -0.02687,0.06408 -0.02687,0.02274 -0.08888,0.02274 h -0.320394 v 1.451073 q 0,0.28732 0.19637,0.487825 0.196371,0.200504 0.465088,0.200504 0.171565,0 0.312125,-0.07855 0.142627,-0.07855 0.248047,-0.241845 0.107487,-0.163298 0.107487,-0.367936 v -1.451073 h -0.320394 q -0.06201,0 -0.08888,-0.02274 -0.02687,-0.02481 -0.02687,-0.06408 0,-0.03927 0.02687,-0.06201 0.02687,-0.02481 0.08888,-0.02481 h 0.640787 q 0.06201,0 0.08888,0.02481 0.02687,0.02274 0.02687,0.06201 0,0.03927 -0.02687,0.06408 -0.02687,0.02274 -0.08888,0.02274 z"
           id="path294" />
      </g>
      <path
         style="fill:#000000;fill-opacity:1;stroke:#000000;stroke-width:0.176389;stroke-dasharray:none;stroke-opacity:1"
         d="m 75.495947,89.490194 h 2.105028"
         id="path1088" />
    </g>
  </g>
</svg>
